# xmcd
#
# Track frame offsets: 
#        150
#        15450
#        36600
#        56026
#        70127
#        84661
#        105811
#        126195
#        144441
#        158042
#        178802
#        194903
#
# Disc length: 2832 seconds
#
# Revision: 0
# Processed by: cddbd v1.5.2PL0 Copyright (c) Steve Scherf et al.
# Submitted via: ExactAudioCopy v1.0b3
#
DISCID=a80b0e0c
DTITLE=Lyliam - Santo Rosario -Dolor y Gloria
DYEAR=2012
DGENRE=Vocal
TTITLE0=Artista desconocido - Virgen de Guadalupe
TTITLE1=Artista desconocido - Te apartaste a orar
TTITLE2=Artista desconocido - Tu flagelación
TTITLE3=Artista desconocido - Coronación de espinas
TTITLE4=Artista desconocido - Jesús cargó nuestra cruz
TTITLE5=Artista desconocido - A los pies de la cruz
TTITLE6=Artista desconocido - Inmaculada Concepción
TTITLE7=Artista desconocido - Jesús resucitó
TTITLE8=Artista desconocido - Peregrino de amor
TTITLE9=Artista desconocido - Espiritu Santo...Ven
TTITLE10=Artista desconocido - Asunción de María
TTITLE11=Artista desconocido - Coronación de María
EXTD=
EXTT0=
EXTT1=
EXTT2=
EXTT3=
EXTT4=
EXTT5=
EXTT6=
EXTT7=
EXTT8=
EXTT9=
EXTT10=
EXTT11=
PLAYORDER=
